<?xml version="1.0" encoding="UTF-8"?>
<svg width="17px" height="16px" viewBox="0 0 17 16" version="1.1" xmlns="http://www.w3.org/2000/svg" xmlns:xlink="http://www.w3.org/1999/xlink">
    <!-- Generator: Sketch 54 (76480) - https://sketchapp.com -->
    <title>Group 13</title>
    <desc>Created with Sketch.</desc>
    <defs>
        <path d="M8.5,6.42691 L14.26136,0.31638 C14.63637,-0.08136 15.2628,-0.09978 15.66054,0.27523 C15.67466,0.28854 15.68838,0.30227 15.7017,0.31638 L15.77505,0.39419 C16.13827,0.77941 16.13827,1.38099 15.77505,1.76621 L9.94034,7.95455 L15.77505,14.14288 C16.13827,14.52811 16.13827,15.12968 15.77505,15.5149 L15.7017,15.59271 C15.32669,15.99045 14.70025,16.00887 14.30251,15.63386 C14.28839,15.62055 14.27467,15.60683 14.26136,15.59271 L8.5,9.48218 L2.73864,15.59271 C2.36363,15.99045 1.7372,16.00887 1.33946,15.63386 C1.32534,15.62055 1.31162,15.60683 1.2983,15.59271 L1.22495,15.5149 C0.86173,15.12968 0.86173,14.52811 1.22495,14.14288 L7.05966,7.95455 L1.22495,1.76621 C0.86173,1.38099 0.86173,0.77941 1.22495,0.39419 L1.2983,0.31638 C1.67331,-0.08136 2.29975,-0.09978 2.69749,0.27523 C2.71161,0.28854 2.72533,0.30227 2.73864,0.31638 L8.5,6.42691 Z" id="path-1"></path>
    </defs>
    <g id="Administration" stroke="none" stroke-width="1" fill="none" fill-rule="evenodd">
        <g id="Artboard" transform="translate(-216.000000, -55.000000)">
            <g id="exit" transform="translate(131.000000, 5.000000)">
                <g id="Group-13">
                    <g transform="translate(85.000000, 50.000000)">
                        <mask id="mask-2" fill="white">
                            <use xlink:href="#path-1"></use>
                        </mask>
                        <use id="Clip-12" fill="#FFFFFF" xlink:href="#path-1"></use>
                    </g>
                </g>
            </g>
        </g>
    </g>
</svg>