<?xml version="1.0" encoding="UTF-8"?>
<svg width="15px" height="17px" viewBox="0 0 15 17" version="1.1" xmlns="http://www.w3.org/2000/svg" xmlns:xlink="http://www.w3.org/1999/xlink">
    <!-- Generator: Sketch 54 (76480) - https://sketchapp.com -->
    <title>ico_delete</title>
    <desc>Created with Sketch.</desc>
    <g id="Administration" stroke="none" stroke-width="1" fill="none" fill-rule="evenodd">
        <g id="Artboard" transform="translate(-88.000000, -124.000000)">
            <g id="ico_delete" transform="translate(89.000000, 125.000000)">
                <path d="M12.51565,1.1846 L12.5155,1.18459 C12.7824,1.18459 12.99869,1.39705 13,1.65779 C13,1.91916 12.78305,2.13163 12.51616,2.13163 L11.79039,2.13163 L11.79039,14.526159 C11.79039,14.787538 11.57344,15 11.30655,15 L1.693453,15 C1.426557,15 1.20961,14.787538 1.20961,14.526159 L1.20961,2.13229 L0.483844,2.13229 C0.216947,2.13229 0,1.91982 0,1.65844 C0,1.39707 0.216947,1.1846 0.483844,1.1846 L3.627566,1.1846 L3.627566,0.47384 C3.627566,0.21246 3.844514,0 4.11141,0 L8.88808,0 C9.15498,0 9.37193,0.21246 9.37193,0.47384 L9.37193,1.1846 L12.51565,1.1846 Z M4.595422,0.94768 L4.595422,1.18396 L8.40441,1.18396 L8.40441,0.94768 L4.595422,0.94768 Z M10.82296,14.051741 L10.82228,14.051741 L10.82228,2.13171 L2.176876,2.13171 L2.176876,14.051741 L10.82296,14.051741 Z M4.5,12 L4.5,11.999869 C4.22487,11.999869 4.000679,11.790043 4,11.530337 L4,4.47081 C4,4.2111 4.224191,4 4.5,4 C4.775809,4 5,4.2111 5,4.47081 L5,11.52919 C5,11.788897 4.775809,12 4.5,12 Z M8.5,12 L8.5,11.999869 C8.22419,11.999869 8,11.790043 8,11.530337 L8,4.47081 C8,4.2111 8.22419,4 8.5,4 C8.77581,4 9,4.2111 9,4.47081 L9,11.52919 C9,11.788897 8.77581,12 8.5,12 Z M6.5,11.999966 L6.5,12 C6.22419,12 6,11.784255 6,11.518686 L6,4.48262 C6,4.2164 6.22419,4 6.5,4 C6.77581,4 7,4.2164 7,4.48262 L7,11.517343 C7,11.783566 6.77581,11.999966 6.5,11.999966 Z" id="Clip-3" fill="#FFFFFF"></path>
                <path d="M12.51565,1.184603 L12.5155,1.184587 C12.7824,1.184587 12.99869,1.397049 13,1.657785 C13,1.919164 12.78305,2.131626 12.51616,2.131626 L11.79039,2.131626 L11.79039,14.52616 C11.79039,14.78754 11.57344,15 11.30655,15 L1.693453,15 C1.426557,15 1.20961,14.78754 1.20961,14.52616 L1.20961,2.132285 L0.4838438,2.132285 C0.2169472,2.132285 0,1.919823 0,1.658444 C0,1.397065 0.2169472,1.184603 0.4838438,1.184603 L3.627566,1.184603 L3.627566,0.4738412 C3.627566,0.2124622 3.844514,0 4.11141,0 L8.888085,0 C9.154981,0 9.371929,0.2124622 9.371929,0.4738412 L9.371929,1.184603 L12.51565,1.184603 Z M4.595422,0.9476824 L4.595422,1.18396 L8.404409,1.18396 L8.404409,0.9476824 L4.595422,0.9476824 Z M10.82296,14.05174 L10.82228,14.05174 L10.82228,2.131709 L2.176876,2.131709 L2.176876,14.05174 L10.82296,14.05174 Z M4.5,12 L4.5,11.99987 C4.22487,11.99987 4.000679,11.79004 4,11.53034 L4,4.47081 C4,4.211103 4.224191,4 4.5,4 C4.775809,4 5,4.211103 5,4.47081 L5,11.52919 C5,11.7889 4.775809,12 4.5,12 Z M8.5,12 L8.5,11.99987 C8.224191,11.99987 8,11.79004 8,11.53034 L8,4.47081 C8,4.211103 8.224191,4 8.5,4 C8.775809,4 9,4.211103 9,4.47081 L9,11.52919 C9,11.7889 8.775809,12 8.5,12 Z M6.5,11.99997 L6.5,12 C6.224191,12 6,11.78425 6,11.51869 L6,4.482623 C6,4.2164 6.224191,4 6.5,4 C6.775809,4 7,4.2164 7,4.482623 L7,11.51734 C7,11.78357 6.775809,11.99997 6.5,11.99997 Z" id="Stroke-5" stroke="#FFFFFF" stroke-width="0.25"></path>
            </g>
        </g>
    </g>
</svg>